# xmcd CD database file
#
# Track frame offsets:
#	150
#	51660
#	109266
#	167991
#	211489
#
# Disc length: 3654 seconds
#
# Revision: 1
# Processed by: cddbd v1.5.2PL0 Copyright (c) Steve Scherf et al.
# Submitted via: CDex 1.51
#
DISCID=4c0e4405
DTITLE=John Abercrombie - Hamburg Jazz Festival
DYEAR=1986
DGENRE=Jazz
TTITLE0=John Abercrombie Quartet - Bass Desires
TTITLE1=John Abercrombie Quartet - Hippetyville
TTITLE2=John Abercrombie Quartet - Ralph's Piano Waltz
TTITLE3=John Abercrombie Quartet - Night
TTITLE4=John Abercrombie Quartet - Four On One
EXTD=YEAR: 1986
EXTT0=
EXTT1=
EXTT2=
EXTT3=
EXTT4=
PLAYORDER=
